<?xml version="1.0" encoding="utf-8"?>
<!-- Generator: Adobe Illustrator 17.0.0, SVG Export Plug-In . SVG Version: 6.00 Build 0)  -->
<!DOCTYPE svg PUBLIC "-//W3C//DTD SVG 1.1//EN" "http://www.w3.org/Graphics/SVG/1.1/DTD/svg11.dtd">
<svg version="1.1" id="Layer_1" xmlns="http://www.w3.org/2000/svg" xmlns:xlink="http://www.w3.org/1999/xlink" x="0px" y="0px" viewBox="0 0 720 180" enable-background="new 0 0 720 180" xml:space="preserve">
<g>
	<path fill="#EF5123" d="M49.497,130.639v15.39H76.47l-0.013,0.512c0,3.651-0.563,8.32-3.246,9.827
		c-1.478,0.83-6.043,2.223-20.01,2.223c-13.597,0-18.687-1.421-20.562-2.613c-2.33-1.481-3.561-5.587-3.561-11.917l-0.158-9.412
		l0.079-7.448c0-6.43,1.245-10.621,3.602-12.119c1.55-0.986,6.358-2.64,21.152-2.64c13.741,0,18.037,0.973,19.374,1.552
		c1.767,0.767,2.811,3.087,3.1,6.898l0.178,2.33h25.512v-2.522c0-10.593-3.278-17.612-9.746-20.862
		c-5.985-3.006-18.474-4.467-38.183-4.467c-14.991,0-25.385,0.92-31.776,2.812c-6.71,1.987-11.792,5.914-15.115,11.682
		c-2.661,4.69-3.954,15.126-3.954,31.906c0,13.502,3.42,22.678,10.167,27.274c6.531,4.45,19.09,6.614,38.392,6.614
		c20.894,0,34.107-1.61,40.394-4.923c6.725-3.544,10.136-11.248,10.135-22.952l-0.367-17.148H49.497z"/>
	<path fill="#EF5123" d="M193.947,137.35c2.961-3.256,4.4-8.826,4.4-17.028c0-9.119-2.916-15.578-8.668-19.199
		c-5.454-3.432-14.815-5.1-28.619-5.1h-55.575v78.988h25.46v-24.919h26.883c13.875,0,13.875,6.472,13.875,8.908v16.011h25.46
		v-18.827c0-5.381-1.912-11.605-9.628-14.794C190.35,140.311,192.473,138.969,193.947,137.35z M130.946,112.876h28.223
		c8.254,0,10.735,1.238,11.417,1.77c0.597,0.465,1.985,2.197,1.985,8.222c0,4.243-0.837,7.114-2.42,8.303
		c-1.03,0.772-4.01,2.068-12.401,2.068h-26.804V112.876z"/>
	<rect x="202.481" y="96.023" fill="#EF5123" width="25.46" height="78.988"/>
	<path fill="#EF5123" d="M315.007,101.694c-5.554-3.816-15.652-5.671-30.871-5.671h-51.24v78.988h25.46v-23.89h21.55l4.702-0.054
		c15.369,0,25.422-1.735,30.732-5.304c5.552-3.733,8.368-11.071,8.368-21.811C323.708,113.15,320.78,105.662,315.007,101.694z
		 M297.931,124.222c0,4.405-0.864,7.241-2.497,8.198c-1.178,0.69-4.867,1.848-16.344,1.848h-20.734v-21.392h22.784
		c11.074,0,13.986,1.239,14.723,1.771C296.348,114.997,297.931,116.724,297.931,124.222z"/>
	<path fill="#EF5123" d="M408.739,101.694c-5.554-3.816-15.652-5.671-30.872-5.671h-51.24v78.988h25.46v-23.89h21.55l4.702-0.054
		c15.369,0,25.422-1.735,30.732-5.304c5.552-3.733,8.368-11.071,8.368-21.811C417.44,113.15,414.512,105.662,408.739,101.694z
		 M391.663,124.222c0,4.405-0.864,7.241-2.497,8.198c-1.178,0.69-4.867,1.848-16.344,1.848h-20.734v-21.392h22.784
		c11.074,0,13.986,1.239,14.723,1.771C390.08,114.997,391.663,116.724,391.663,124.222z"/>
	<polygon fill="#EF5123" points="445.709,142.291 496.161,142.291 496.161,126.901 445.709,126.901 445.709,112.876 498.92,112.876
		498.92,96.023 420.248,96.023 420.248,175.011 499.393,175.011 499.393,158.158 445.709,158.158 	"/>
	<path fill="#EF5123" d="M590.964,137.35c2.961-3.256,4.401-8.826,4.401-17.028c0-9.119-2.916-15.578-8.668-19.199
		c-5.454-3.432-14.815-5.1-28.619-5.1h-55.575v78.988h25.46v-24.919h26.883c13.875,0,13.875,6.472,13.875,8.908v16.011h25.46
		v-18.827c0-5.381-1.912-11.605-9.628-14.794C587.368,140.311,589.491,138.969,590.964,137.35z M527.964,112.876h28.223
		c8.254,0,10.735,1.238,11.417,1.77c0.597,0.465,1.985,2.197,1.985,8.222c0,4.243-0.837,7.114-2.42,8.303
		c-1.03,0.772-4.01,2.068-12.401,2.068h-26.804V112.876z"/>
	<path fill="#EF5123" d="M680.635,131.806c-5.094-2.737-15.625-4.376-32.199-5.011c-17.328-0.646-21.938-1.529-23.145-1.998
		c-1.755-0.682-2.018-4.08-2.018-6.046c0-3.739,1.548-4.859,2.896-5.416c1.821-0.753,6.422-1.651,17.995-1.651
		c10.196,0,13.47,0.844,14.513,1.347c1.672,0.808,2.336,3.533,2.597,5.725c0.013,0.446,0.074,1.016,0.185,1.736l0.332,2.135h24.626
		v-5.339c0-8.684-3.326-14.646-9.886-17.722c-6.02-2.821-17.071-4.193-33.785-4.193c-17.643,0-29.193,1.497-35.307,4.576
		c-6.596,3.321-9.941,9.884-9.941,19.506c0,9.408,2.831,15.713,8.415,18.74c5.12,2.777,16.155,4.47,33.728,5.178l11.282,0.488
		c7.728,0.308,10.336,1.242,11.2,1.77c1.109,0.68,1.672,2.353,1.672,4.973c0,2.619-0.424,5.966-2.443,7.035
		c-1.206,0.639-4.929,1.711-16.319,1.711c-14.837,0-19.215-0.953-20.506-1.521c-2.012-0.884-2.434-4.388-2.434-7.171l-0.202-4.093
		h-24.861l0.154,5.23c0,9.582,3.263,16.098,9.696,19.367c5.959,3.027,17.356,4.499,34.842,4.499c19.405,0,31.725-1.502,37.664-4.592
		c6.392-3.327,9.634-10.486,9.634-21.278C689.018,140.848,686.197,134.797,680.635,131.806z"/>
	<g stroke-width="2">
	<path fill="#04303A" stroke="#EF5123" stroke-miterlimit="10" d="M562.563,26.404c-2.108,0-3.567,0.163-7.782,0.487
		c1.621,3.891,2.107,5.513,2.107,7.134s-0.648,3.243-2.918,7.945c-11.512,28.051-19.782,50.589-22.7,62.263
		c-0.811,3.08-1.947,4.54-3.73,4.54c-1.135,0-7.134-1.947-9.08-2.919c-4.865-2.432-8.756-8.594-8.756-13.944
		c0-5.027,1.459-9.242,12.323-35.672C529,39.538,532.729,30.133,533.54,28.349c-5.189,0.973-7.134,1.459-9.242,2.27
		c-1.297,0.649-2.432,0.973-3.243,0.973c-1.297,0-1.946-1.135-2.594-3.891c-0.973-4.703-1.946-11.837-1.946-13.783
		c0-3.08,0.972-4.215,4.378-5.189c9.08-2.432,25.132-3.891,41.346-3.891c3.405,0,5.189,0.648,6.648,2.595
		c2.595,3.242,4.216,5.35,5.027,6.323c1.783,2.27,2.27,2.918,2.27,3.891c0,0.972-1.297,3.73-2.919,6.486
		c-1.296,1.946-2.107,2.594-4.215,2.594c-0.163,0-1.946-0.162-4.215-0.324H562.563z"/>
	<path fill="#04303A" stroke="#EF5123" stroke-miterlimit="10" d="M586.338,42.798c4.865,3.891,7.297,7.296,7.297,10.215
		c0,1.783,0,1.783-3.08,6.972c-5.351,11.513-8.27,19.134-14.269,38.267c-0.486,1.459-0.972,3.08-1.459,4.702
		c-0.648,2.108-1.297,4.054-1.459,4.539c-1.136,4.054-3.243,5.838-6.973,5.838c-1.297,0-2.108-0.487-3.891-2.432
		c-1.784-1.784-2.432-2.108-5.513-2.919c-2.595-0.648-3.243-1.135-5.027-3.729c-0.972-1.297-1.459-2.757-1.297-3.892
		c0.325-4.054,4.54-15.241,17.187-44.752c6.162-14.43,7.783-17.188,10.216-17.188C579.852,38.419,582.608,39.879,586.338,42.798z
		 M598.012,11.504c1.946,1.297,3.243,2.108,3.567,2.27c0.811,0.487,1.297,0.811,1.946,1.135c2.108,1.136,2.919,2.271,2.919,4.378
		c0,1.297-0.811,3.243-2.108,5.351c-1.297,1.946-2.108,3.243-2.27,3.405c-0.487,0.811-1.135,2.432-1.946,4.379
		c-1.46,4.378-2.919,5.998-4.865,5.998c-1.622,0-5.999-2.594-11.188-6.648c-3.73-2.756-4.702-4.378-4.54-6.648
		c0.163-2.595,3.406-12.161,5.189-15.242c1.46-2.27,2.919-3.405,4.865-3.405C590.878,6.478,590.878,6.478,598.012,11.504z"/>
	<path fill="#04303A" stroke="#EF5123" stroke-miterlimit="10" d="M609.721,43.177c1.947-5.352,2.108-6,2.595-7.621
		c1.135-3.891,2.27-5.189,4.865-5.189c1.459,0,1.459,0,5.513,3.243c4.865,4.054,4.865,4.054,6.648,5.837
		c1.621-0.324,2.919-0.486,3.567-0.649c2.108-0.324,4.378-0.648,4.54-0.648c1.621-0.487,3.08-0.649,3.73-0.649
		c2.756,0,5.35,1.946,9.404,6.811c5.675,6.973,8.269,13.296,8.269,19.944c0,12.809-9.728,30.97-22.537,42.32
		c-4.865,4.216-10.54,7.621-12.972,7.621c-2.594,0-6.323-3.243-12.323-10.864c-2.27,5.189-2.27,5.189-5.026,11.837l-3.73,9.404
		l-2.594,6.648c-3.892,10.053-4.378,10.702-6.81,10.702c-1.135,0-1.784-0.487-3.081-1.947c-0.972-1.135-1.783-1.783-2.594-1.946
		c-0.163,0-0.648,0-1.622-0.162h-1.946c-3.243,0-7.458-5.513-7.458-9.566c0-3.892,1.459-7.297,13.944-34.05
		c3.405-7.297,6.323-14.107,8.593-20.43l5.513-15.079c0-0.163,0.811-2.108,1.297-3.405c-1.622-5.514-1.946-6.973-1.946-7.946
		c0-1.135,0.972-1.946,3.243-2.918L609.721,43.177z M617.018,88.739c0.649,0.324,1.297,0.487,1.622,0.487
		c5.027,0.324,17.998-18.809,17.998-26.754c0-2.432-1.297-3.567-3.891-3.567c-1.297,0-2.432,0.162-4.54,0.811
		C625.287,68.633,622.693,75.606,617.018,88.739z"/>
	<path fill="#04303A" stroke="#EF5123" stroke-miterlimit="10" d="M674.058,83.519c-5.322-2.537-8.606-7.409-9.302-14.02
		c-1.086-10.32,3.31-18.12,13.842-24.935c6.561-4.278,14.852-7.596,20.012-8.14c4.031-0.424,8.911,1.018,13.443,3.803
		c2.623,1.68,3.828,3.837,4.202,7.384c0.356,3.386-0.263,8.342-1.383,10.091c-1.264,1.927-7.995,4.592-13.155,5.135
		c-1.451,0.153-2.487-0.391-2.606-1.52c-0.017-0.161-0.068-0.645,0.009-1.468c0.11-0.501,0.059-0.985-0.009-1.63
		c-0.187-1.774-0.772-2.69-2.062-2.555c-3.547,0.373-8.962,4.693-8.724,6.951c0.136,1.29,1.026,2.011,3.42,3.063
		c11.932,4.94,14.886,8.216,15.82,17.085c0.984,9.352-3.251,17.135-14.097,25.613c-6.171,4.889-12.527,8.004-17.365,8.513
		c-8.708,0.917-22.55-8.224-23.297-15.319c-0.272-2.58,1.8-7.689,5.033-12.595c1.698-2.461,2.759-3.225,4.048-3.361
		c1.936-0.204,3.2,0.968,5.364,4.49c2.342,3.666,4.464,5.237,6.883,4.982c2.741-0.289,4.864-1.817,8.954-6.323
		C681.076,86.694,681.076,86.694,674.058,83.519z"/>
	</g>
</g>
</svg>
